<svg width="28" height="28" viewBox="0 0 28 28" fill="none" xmlns="http://www.w3.org/2000/svg">
<g clip-path="url(#clip0_429_301)">
<path d="M14.5918 0C20.9205 1.58957e-09 24.102 0.000377226 26.0508 1.96582C27.9995 3.93138 28 7.09617 28 13.4082V14.5918C28 20.905 28.0163 24.0686 26.0508 26.0342C24.0852 27.9996 20.9205 28 14.5918 28H13.4258C7.09555 28 3.93143 27.9998 1.96582 26.0342C0.000277975 24.0686 1.24178e-09 20.905 0 14.5918V13.4082C1.03723e-09 7.09394 0.000273725 3.93138 1.96582 1.96582C3.93143 0.000227303 7.09555 0 13.4258 0H14.5918ZM4.73145 8.52832C4.88041 15.8071 8.71211 20.1874 15.0254 20.1875H15.3916V16.0234C17.6898 16.2564 19.4064 17.9722 20.1064 20.1875H23.4199C22.5205 16.8737 20.1884 15.0418 18.7393 14.3418C20.1885 13.476 22.237 11.3765 22.7197 8.52832H19.7061C19.0722 10.8434 17.1903 12.9422 15.3916 13.1416V8.52832H12.3262V16.6074C10.4614 16.1448 8.02936 13.875 7.92969 8.52832H4.73145Z" fill="black"/>
</g>
<defs>
<clipPath id="clip0_429_301">
<rect width="28" height="28" fill="white"/>
</clipPath>
</defs>
</svg>
