<svg width="28" height="28" viewBox="0 0 28 28" fill="none" xmlns="http://www.w3.org/2000/svg">
<g clip-path="url(#clip0_429_302)">
<path d="M28 13.6398C28 21.1723 21.8462 27.2787 14.2534 27.2787C11.8439 27.2787 9.58046 26.6624 7.61013 25.5832L0 28L2.48071 20.6802C1.22986 18.6259 0.509473 16.2136 0.509473 13.6389C0.510386 6.10637 6.66241 0 14.2552 0C21.8471 0.00182607 28 6.10728 28 13.6398ZM14.2525 2.17485C7.88039 2.17485 2.6971 7.31888 2.6971 13.6425C2.6971 16.1516 3.51518 18.4743 4.89842 20.3643L3.45583 24.6218L7.895 23.2111C9.72107 24.409 11.906 25.1066 14.2525 25.1066C20.6245 25.1066 25.8096 19.9635 25.8096 13.6398C25.8115 7.31888 20.6254 2.17485 14.2525 2.17485ZM21.1952 16.7816C21.1093 16.6437 20.8847 16.5597 20.5487 16.3917C20.2136 16.2237 18.5547 15.4157 18.247 15.3061C17.9365 15.1938 17.7119 15.1372 17.4873 15.4723C17.2655 15.8073 16.619 16.5597 16.4209 16.7843C16.2246 17.008 16.0283 17.0363 15.6914 16.871C15.3545 16.7012 14.268 16.3506 12.9806 15.2121C11.979 14.3246 11.3024 13.2317 11.1071 12.8966C10.9089 12.5624 11.087 12.3816 11.2541 12.2155C11.4047 12.0648 11.591 11.8247 11.7599 11.6284C11.9288 11.4339 11.9845 11.2961 12.0968 11.0724C12.2073 10.8487 12.1516 10.6542 12.0685 10.4853C11.9845 10.3173 11.3116 8.67382 11.0294 8.00457C10.7491 7.33622 10.4688 7.4467 10.2716 7.4467C10.0753 7.4467 9.85072 7.41931 9.62611 7.41931C9.40151 7.41931 9.03629 7.50057 8.7286 7.83565C8.42091 8.17074 7.54987 8.97877 7.54987 10.6241C7.54987 12.2712 8.75599 13.8589 8.9249 14.0817C9.09473 14.3036 11.2568 17.7905 14.6816 19.129C18.1082 20.4666 18.1082 20.0201 18.7254 19.9635C19.3444 19.9069 20.7195 19.1554 20.9989 18.3757C21.2801 17.5923 21.2801 16.9212 21.1952 16.7816Z" fill="black"/>
</g>
<defs>
<clipPath id="clip0_429_302">
<rect width="28" height="28" fill="white"/>
</clipPath>
</defs>
</svg>
