<svg width="45" height="45" viewBox="0 0 45 45" fill="none" xmlns="http://www.w3.org/2000/svg">
<g clip-path="url(#clip0_429_297)">
<path d="M45 21.9211C45 34.027 35.1099 43.8408 22.9072 43.8408C19.0348 43.8408 15.3972 42.8503 12.2306 41.1159L0 45L3.98686 33.2361C1.97655 29.9345 0.818796 26.0577 0.818796 21.9197C0.820263 9.81381 10.7074 0 22.9101 0C35.1114 0.00293475 45 9.81527 45 21.9211ZM22.9057 3.49529C12.6649 3.49529 4.33463 11.7625 4.33463 21.9255C4.33463 25.9579 5.64939 29.6909 7.87247 32.7283L5.55402 39.5707L12.6884 37.3036C15.6231 39.2288 19.1346 40.3499 22.9057 40.3499C33.1465 40.3499 41.4798 32.0842 41.4798 21.9211C41.4827 11.7625 33.148 3.49529 22.9057 3.49529ZM34.0637 26.9704C33.9257 26.7488 33.5647 26.6138 33.0247 26.3438C32.4862 26.0738 29.82 24.7752 29.3255 24.5991C28.8266 24.4186 28.4656 24.3276 28.1046 24.8661C27.7481 25.4047 26.7092 26.6138 26.3907 26.9748C26.0753 27.3343 25.7598 27.3798 25.2183 27.1142C24.6769 26.8412 22.9307 26.2778 20.8617 24.4479C19.252 23.0217 18.1646 21.2652 17.8506 20.7267C17.5322 20.1896 17.8183 19.8991 18.0869 19.632C18.329 19.3899 18.6283 19.004 18.8998 18.6885C19.1713 18.3759 19.2608 18.1544 19.4413 17.7949C19.6188 17.4354 19.5293 17.1228 19.3958 16.8513C19.2608 16.5813 18.1793 13.9401 17.7259 12.8645C17.2754 11.7904 16.8249 11.9679 16.508 11.9679C16.1925 11.9679 15.8315 11.9239 15.4705 11.9239C15.1096 11.9239 14.5226 12.0545 14.0281 12.593C13.5336 13.1315 12.1337 14.4302 12.1337 17.0744C12.1337 19.7215 14.0721 22.2733 14.3436 22.6313C14.6165 22.9879 18.0913 28.5918 23.5954 30.743C29.1025 32.8927 29.1025 32.1751 30.0944 32.0842C31.0893 31.9932 33.2992 30.7855 33.7482 29.5324C34.2001 28.2734 34.2001 27.1949 34.0637 26.9704Z" fill="#30559D"/>
</g>
<defs>
<clipPath id="clip0_429_297">
<rect width="45" height="45" fill="white"/>
</clipPath>
</defs>
</svg>
