<svg width="30" height="30" viewBox="0 0 30 30" fill="none" xmlns="http://www.w3.org/2000/svg">
<path d="M24.9912 15.4376L25 15.3126C25.0003 15.0858 24.9184 14.8666 24.7695 14.6956C24.6205 14.5246 24.4147 14.4134 24.19 14.3826L24.0625 14.3738L8.1925 14.3751L12.2187 10.3501C12.3775 10.1913 12.4741 9.98089 12.4908 9.757C12.5075 9.53312 12.4434 9.31066 12.31 9.13007L12.22 9.02507C12.0612 8.86597 11.8505 8.76923 11.6263 8.75248C11.4022 8.73573 11.1794 8.80008 10.9987 8.93382L10.8937 9.02382L5.26875 14.6451C5.10998 14.8038 5.01344 15.0142 4.9967 15.2381C4.97995 15.462 5.04411 15.6845 5.1775 15.8651L5.26875 15.9701L10.8937 21.6001C11.0612 21.7663 11.2853 21.8632 11.5211 21.8715C11.7569 21.8798 11.9872 21.7989 12.1659 21.6449C12.3447 21.4909 12.4588 21.2751 12.4855 21.0407C12.5122 20.8062 12.4496 20.5703 12.31 20.3801L12.22 20.2751L8.1975 16.2501H24.0625C24.2894 16.25 24.5086 16.1676 24.6794 16.0182C24.8502 15.8688 24.961 15.6625 24.9912 15.4376Z" fill="white"/>
</svg>
