<svg width="30" height="30" viewBox="0 0 30 30" fill="none" xmlns="http://www.w3.org/2000/svg">
<path d="M5.00875 15.4376L5 15.3126C4.99971 15.0858 5.08162 14.8666 5.23055 14.6956C5.37948 14.5246 5.58535 14.4134 5.81 14.3826L5.9375 14.3738L21.8075 14.3751L17.7813 10.3501C17.6225 10.1913 17.5259 9.98089 17.5092 9.757C17.4925 9.53312 17.5566 9.31066 17.69 9.13007L17.78 9.02507C17.9388 8.86597 18.1495 8.76923 18.3737 8.75248C18.5978 8.73573 18.8206 8.80008 19.0013 8.93382L19.1063 9.02382L24.7313 14.6451C24.89 14.8038 24.9866 15.0142 25.0033 15.2381C25.02 15.462 24.9559 15.6845 24.8225 15.8651L24.7313 15.9701L19.1063 21.6001C18.9388 21.7663 18.7147 21.8632 18.4789 21.8715C18.2431 21.8798 18.0128 21.7989 17.8341 21.6449C17.6553 21.4909 17.5412 21.2751 17.5145 21.0407C17.4878 20.8062 17.5504 20.5703 17.69 20.3801L17.78 20.2751L21.8025 16.2501H5.9375C5.71058 16.25 5.49139 16.1676 5.3206 16.0182C5.14981 15.8688 5.03901 15.6625 5.00875 15.4376Z" fill="white"/>
</svg>
