<svg width="22" height="22" viewBox="0 0 22 22" fill="none" xmlns="http://www.w3.org/2000/svg">
<path d="M18.5632 2.52075H3.43815C3.19504 2.52075 2.96188 2.61733 2.78997 2.78924C2.61806 2.96115 2.52148 3.1943 2.52148 3.43742V18.5624C2.52148 18.8055 2.61806 19.0387 2.78997 19.2106C2.96188 19.3825 3.19504 19.4791 3.43815 19.4791H18.5632C18.8063 19.4791 19.0394 19.3825 19.2113 19.2106C19.3832 19.0387 19.4798 18.8055 19.4798 18.5624V3.43742C19.4798 3.1943 19.3832 2.96115 19.2113 2.78924C19.0394 2.61733 18.8063 2.52075 18.5632 2.52075Z" stroke="#30559D" stroke-width="1.5" stroke-linecap="round" stroke-linejoin="round"/>
<path d="M11.7244 16.5651C11.7051 14.3702 12.2111 12.5566 14.9694 12.6707C18.9051 2.64143 2.85882 3.02368 7.13644 12.6106C8.43353 12.53 10.5831 13.3023 10.2164 16.8026M19.4798 15.3446L2.52148 18.0139M2.52148 5.06006L8.17961 6.10964M14.83 7.11798L19.4798 7.79677" stroke="#30559D" stroke-width="1.5" stroke-linecap="round" stroke-linejoin="round"/>
</svg>
