<svg width="31" height="32" viewBox="0 0 31 32" fill="none" xmlns="http://www.w3.org/2000/svg">
<path d="M14.3576 1.49361C14.809 0.148294 16.7118 0.148297 17.1632 1.49361L19.9052 9.66651C20.1015 10.2516 20.6404 10.6534 21.2572 10.6746L29.5347 10.9588C30.8922 11.0054 31.4748 12.7032 30.432 13.5735L23.7222 19.1735C23.2789 19.5435 23.0913 20.1375 23.2417 20.6949L25.571 29.3287C25.9349 30.6775 24.3989 31.7328 23.2703 30.9094L16.6325 26.0662C16.1129 25.6871 15.4079 25.6871 14.8883 26.0662L8.2505 30.9094C7.12195 31.7328 5.58596 30.6775 5.94984 29.3287L8.27913 20.6949C8.42951 20.1375 8.24192 19.5435 7.79866 19.1735L1.08879 13.5735C0.0460072 12.7032 0.628655 11.0054 1.98609 10.9588L10.2636 10.6746C10.8804 10.6534 11.4193 10.2516 11.6156 9.66651L14.3576 1.49361Z" fill="#FEC20F"/>
</svg>
