<svg width="20" height="20" viewBox="0 0 20 20" fill="none" xmlns="http://www.w3.org/2000/svg">
<path d="M17.5 10.0001C17.5 8.43303 17.0092 6.90528 16.0964 5.63146C15.1836 4.35764 13.8947 3.40174 12.4108 2.89801C10.9268 2.39429 9.32237 2.36805 7.82275 2.82298C6.32314 3.27791 5.00369 4.19116 4.04973 5.43445C3.09577 6.67774 2.55522 8.18863 2.50401 9.75489C2.45279 11.3212 2.89348 12.8641 3.76419 14.1671C4.63489 15.47 5.89186 16.4675 7.35855 17.0195C8.82525 17.5714 10.428 17.65 11.9417 17.2443" stroke="#30559D" stroke-width="2" stroke-linecap="round"/>
<path d="M9.99935 13.3337C11.8403 13.3337 13.3327 11.8413 13.3327 10.0003C13.3327 8.15938 11.8403 6.66699 9.99935 6.66699C8.1584 6.66699 6.66602 8.15938 6.66602 10.0003C6.66602 11.8413 8.1584 13.3337 9.99935 13.3337Z" stroke="#30559D" stroke-width="2"/>
<path d="M13.334 7.5V11.25C13.334 11.8025 13.5535 12.3324 13.9442 12.7231C14.3349 13.1138 14.8648 13.3333 15.4173 13.3333C15.9699 13.3333 16.4998 13.1138 16.8905 12.7231C17.2812 12.3324 17.5007 11.8025 17.5007 11.25V10" stroke="#30559D" stroke-width="2" stroke-linecap="round"/>
</svg>
