<svg width="35" height="35" viewBox="0 0 35 35" fill="none" xmlns="http://www.w3.org/2000/svg">
<g clip-path="url(#clip0_429_470)">
<path d="M18.2393 0C26.1506 1.37436e-10 30.1285 4.40198e-05 32.5645 2.45703C35.0002 4.91405 35 8.87062 35 16.7607V18.2393C35 26.1308 35.0212 30.086 32.5645 32.543C30.1075 35 26.1506 35 18.2393 35H16.7822C8.86943 35 4.91404 35 2.45703 32.543C5.26554e-05 30.086 0 26.1311 0 18.2393V16.7607C0 8.86759 4.73506e-05 4.91403 2.45703 2.45703C4.91404 3.99876e-05 8.86943 0 16.7822 0H18.2393ZM5.91406 10.6611C6.10032 19.7597 10.8895 25.2354 18.7812 25.2354H19.2393V20.0303C22.1119 20.3216 24.2569 22.4662 25.1318 25.2354H29.2744C28.1503 21.0928 25.2354 18.8018 23.4238 17.9268C25.2353 16.8444 27.796 14.2211 28.3994 10.6611H24.6318C23.8396 13.5548 21.4875 16.1783 19.2393 16.4277V10.6611H15.4072V20.7588C13.0762 20.1806 10.0358 17.3447 9.91113 10.6611H5.91406Z" fill="#30559D"/>
</g>
<defs>
<clipPath id="clip0_429_470">
<rect width="35" height="35" fill="white"/>
</clipPath>
</defs>
</svg>
