<svg width="35" height="35" viewBox="0 0 35 35" fill="none" xmlns="http://www.w3.org/2000/svg">
<g clip-path="url(#clip0_429_466)">
<path d="M34.998 17.0488C34.998 26.4644 27.3057 34.0974 17.8148 34.0974C14.8029 34.0974 11.9736 33.327 9.51072 31.978L-0.00195312 34.999L3.09894 25.8493C1.53537 23.2814 0.634888 20.2661 0.634888 17.0476C0.636029 7.63198 8.32605 -0.000976562 17.817 -0.000976562C27.3069 0.00130602 34.998 7.63313 34.998 17.0488ZM17.8136 2.71758C9.84854 2.71758 3.36942 9.14762 3.36942 17.0522C3.36942 20.1885 4.39202 23.0919 6.12108 25.4544L4.31784 30.7762L9.8668 29.0129C12.1494 30.5103 14.8805 31.3823 17.8136 31.3823C25.7787 31.3823 32.2601 24.9534 32.2601 17.0488C32.2624 9.14762 25.7798 2.71758 17.8136 2.71758ZM26.492 20.976C26.3847 20.8036 26.104 20.6986 25.684 20.4886C25.2651 20.2786 23.1914 19.2686 22.8068 19.1316C22.4187 18.9913 22.138 18.9205 21.8572 19.3394C21.5799 19.7582 20.7718 20.6986 20.5242 20.9794C20.2788 21.259 20.0334 21.2944 19.6123 21.0878C19.1912 20.8755 17.833 20.4373 16.2238 19.0141C14.9718 17.9048 14.1261 16.5386 13.8819 16.1198C13.6342 15.7021 13.8568 15.4761 14.0656 15.2684C14.2539 15.0801 14.4867 14.7799 14.6979 14.5345C14.909 14.2914 14.9786 14.1191 15.119 13.8395C15.2571 13.5599 15.1875 13.3168 15.0836 13.1056C14.9786 12.8956 14.1375 10.8413 13.7849 10.0047C13.4345 9.1693 13.0841 9.3074 12.8376 9.3074C12.5922 9.3074 12.3114 9.27316 12.0307 9.27316C11.7499 9.27316 11.2934 9.37474 10.9088 9.79359C10.5242 10.2124 9.43539 11.2225 9.43539 13.2791C9.43539 15.338 10.943 17.3227 11.1542 17.6012C11.3665 17.8785 14.069 22.2371 18.35 23.9102C22.6333 25.5822 22.6333 25.0241 23.4048 24.9534C24.1786 24.8826 25.8974 23.9433 26.2466 22.9687C26.5981 21.9894 26.5981 21.1506 26.492 20.976Z" fill="#30559D"/>
</g>
<defs>
<clipPath id="clip0_429_466">
<rect width="35" height="35" fill="white"/>
</clipPath>
</defs>
</svg>
