<svg width="265" height="70" viewBox="0 0 265 70" fill="none" xmlns="http://www.w3.org/2000/svg">
<g clip-path="url(#clip0_429_154)">
<path d="M69.1878 33.1055L45.9112 33.0761L52.449 25.9964C55.0063 23.2061 56.7217 21.0619 57.6517 19.417C58.6101 17.7722 59.1041 16.0382 59.1041 14.3053C59.1041 11.6324 58.0869 9.34135 56.0821 7.54967C55.9071 7.4028 55.7623 7.28531 55.5882 7.13846C55.6166 7.16783 55.6166 7.16782 55.646 7.1972V7.16783C55.5589 7.10909 55.4719 7.05034 55.3848 6.96222C55.3261 6.93285 55.2685 6.90348 55.2098 6.84473C52.2455 4.6408 48.8755 2.87949 45.214 1.67421C41.7843 0.558067 38.2098 0 34.6353 0C19.4368 0 6.12762 9.87008 1.59375 24.5571H5.31395H25.4239L20.4832 34.2804C19.96 35.279 20.5702 36.4833 21.6743 36.6595C25.4239 37.2764 32.5718 39.3324 32.6892 46.0303C32.7175 47.4989 32.3694 48.85 31.7298 50.0543C31.1195 51.2585 30.2472 52.2866 29.1431 53.1384C28.0106 53.9911 26.7314 54.6667 25.2205 55.1357C23.7378 55.6066 22.1105 55.8416 20.3091 55.8416C18.362 55.8416 16.5889 55.6654 15.0486 55.3422C13.48 54.9888 11.6786 54.3436 10.5158 53.8149L8.4522 57.8977C12.55 62.7147 17.8964 66.3285 24.0577 68.3258C27.4864 69.4419 31.0608 70 34.6353 70C48.9332 70 61.9519 60.923 67.009 47.4108C67.2114 46.8527 67.4158 46.2653 67.5898 45.7072C68.8974 41.6244 69.4206 37.3057 69.1878 33.1055ZM51.6069 30.6089H64.4222H68.3165H68.956C68.9267 30.3739 68.9267 30.1683 68.8974 29.9333C68.2001 25.2033 66.6011 20.7975 64.2765 16.891L63.725 17.4785H63.6956L51.6069 30.6089ZM9.09186 51.141L21.3556 27.0538H5.57607H0.925824C-0.962613 35.1322 0.0534518 43.5336 3.83134 50.9942C4.7037 52.6684 5.66209 54.2555 6.76721 55.7535L9.09186 51.141ZM62.7949 45.7953C58.3774 57.5452 47.0731 65.4473 34.6353 65.4473C31.5264 65.4473 28.4164 64.947 25.4239 63.9777C23.0122 63.1847 20.5418 61.9804 18.2456 60.5118C18.8558 60.5412 19.4955 60.5705 20.135 60.5705C22.6043 60.5705 24.9006 60.2474 27.0806 59.6013C29.2301 58.9257 31.1195 57.9564 32.7175 56.6934C34.3448 55.401 35.6231 53.8149 36.5531 51.9341C37.4832 50.0249 37.9487 47.8807 37.9487 45.4429C37.9487 43.5042 37.5995 41.7713 36.9022 40.2429C36.2333 38.7166 35.2455 37.4232 33.9968 36.3365C32.7469 35.2496 31.2643 34.4272 29.5793 33.8398C28.6492 33.5167 27.6908 33.3111 26.6727 33.1642L32.9209 20.6507C33.1537 20.1807 32.8046 19.5933 32.2813 19.5933H8.65567C13.9739 10.3988 23.7378 4.5537 34.6353 4.5537C37.6582 4.5537 40.6802 5.02264 43.5866 5.96357C42.6859 6.40415 41.8713 6.99159 41.1163 7.72587C39.1105 9.63512 38.0934 12.1023 38.0934 15.0689V15.1277C38.0934 15.5095 38.4132 15.8336 38.7907 15.8336H42.5392H42.5979C42.9764 15.8033 43.2952 15.4812 43.2952 15.0993V15.0406C43.2952 13.4241 43.7607 12.1611 44.7191 11.1918C45.7078 10.1931 46.9567 9.72323 48.5557 9.72323C50.0666 9.72323 51.2872 10.1931 52.3042 11.1037C53.292 12.0142 53.7859 13.102 53.7859 14.4521C53.7859 15.5399 53.4954 16.6257 52.9145 17.6253C52.3042 18.7121 50.9967 20.3275 49.0779 22.4424L39.4303 33.1055L39.1692 33.3698C38.5883 34.016 38.2978 34.8091 38.2978 35.6609V35.749C38.2978 37.0413 39.3139 38.0694 40.5931 38.0694H59.6272H64.5679C64.3635 40.1842 63.9283 42.2706 63.2888 44.2973C63.143 44.7966 62.9689 45.2959 62.7949 45.7953Z" fill="#30559D"/>
<path d="M261.797 41.1241L264.239 43.5033V43.6501L261.857 46.0293C261.797 46.0293 261.711 45.9715 261.596 45.8531C261.507 45.7659 261.449 45.6778 261.449 45.5886L263.221 43.562L261.392 41.5647C261.392 41.4766 261.449 41.3884 261.537 41.3003C261.652 41.1828 261.711 41.1241 261.797 41.1241ZM259.445 41.1241L261.886 43.5033V43.6501L259.502 46.0293C259.445 46.0293 259.357 45.9715 259.27 45.8531C259.154 45.7659 259.096 45.6778 259.096 45.5886L260.897 43.562L259.037 41.5647C259.037 41.4766 259.096 41.3884 259.182 41.3003C259.299 41.1828 259.386 41.1241 259.445 41.1241ZM253.546 39.1562L251.599 43.6501H255.551L253.546 39.1562ZM254.039 37.8344L257.991 46.7636C257.991 46.7939 257.875 46.882 257.613 47.0289C257.352 47.1454 257.178 47.2041 257.091 47.2041L255.899 44.5019H251.22L250.029 47.2041C249.97 47.2041 249.797 47.1454 249.535 46.9995C249.245 46.882 249.127 46.7939 249.127 46.7636L252.731 38.6862H252.035C251.976 38.6862 251.889 38.6275 251.772 38.51C251.686 38.4219 251.627 38.3338 251.627 38.275C251.627 38.2163 251.686 38.1282 251.772 38.0107C251.889 37.8931 251.976 37.8344 252.035 37.8344H254.039ZM244.828 38.7156H242.735V41.9465H244.828C245.379 41.9465 245.815 41.7997 246.164 41.4766C246.484 41.1828 246.658 40.801 246.658 40.331C246.658 39.8611 246.484 39.4499 246.164 39.1562C245.815 38.8625 245.379 38.7156 244.828 38.7156ZM245.204 42.7983H242.735V46.2653H245.204C245.786 46.2653 246.251 46.088 246.6 45.7943C246.919 45.4712 247.094 45.0306 247.094 44.5313C247.094 44.0026 246.919 43.5914 246.6 43.2683C246.251 42.9745 245.786 42.7983 245.204 42.7983ZM240.613 38.5393C240.498 38.4219 240.439 38.3338 240.439 38.275C240.439 38.2163 240.498 38.1282 240.613 38.0107C240.7 37.8931 240.788 37.8344 240.875 37.8344H244.886C245.728 37.8344 246.397 38.0694 246.919 38.51C247.443 38.9506 247.704 39.538 247.704 40.2429C247.704 40.6836 247.588 41.0947 247.355 41.4472C247.123 41.7997 246.804 42.0934 246.425 42.299C246.948 42.4752 247.385 42.7689 247.704 43.1802C248.024 43.5914 248.169 44.0614 248.169 44.6194C248.169 45.3537 247.908 45.9715 247.385 46.4121C246.832 46.882 246.135 47.117 245.234 47.117H241.689V38.6862H240.875C240.788 38.6862 240.7 38.6275 240.613 38.5393ZM233.61 41.3297C233.61 43.2096 233.174 44.8554 232.331 46.2653H237.388V38.7156H233.61V41.3297ZM231.546 38.5393C231.46 38.4219 231.402 38.3338 231.402 38.275C231.402 38.2163 231.46 38.1282 231.546 38.0107C231.633 37.8931 231.721 37.8344 231.808 37.8344H238.434V46.2653H239.683L239.596 49.4374H238.782L238.667 47.117H231.256L231.169 49.4374H230.355L230.269 46.2653H231.285C231.46 45.9999 231.633 45.6778 231.808 45.3243C231.983 44.9719 232.156 44.4148 232.331 43.6207C232.534 42.8571 232.622 42.0346 232.622 41.1828V38.6862H231.808C231.75 38.6862 231.663 38.6275 231.546 38.5393ZM222.712 42.6808H220.272V46.2653H222.712C223.293 46.2653 223.759 46.088 224.107 45.7659C224.456 45.4124 224.63 45.0022 224.63 44.4432C224.63 43.9144 224.456 43.5033 224.107 43.1802C223.759 42.8277 223.293 42.6808 222.712 42.6808ZM219.225 47.117V37.8344H220.272V41.7997H222.771C223.643 41.7997 224.369 42.0346 224.892 42.534C225.444 43.0333 225.705 43.6795 225.705 44.4432C225.705 45.2372 225.444 45.8824 224.892 46.3817C224.369 46.882 223.643 47.117 222.771 47.117H219.225ZM210.014 38.7156V37.8344H217.627V38.7156H214.372V47.117H213.326V38.7156H210.014ZM205.974 39.1562L203.998 43.6501H207.98L205.974 39.1562ZM206.469 37.8344L210.419 46.7636C210.419 46.7939 210.275 46.882 210.014 47.0289C209.752 47.1454 209.577 47.2041 209.49 47.2041L208.328 44.5019H203.649L202.458 47.2041C202.399 47.2041 202.225 47.1454 201.935 46.9995C201.672 46.882 201.557 46.7939 201.557 46.7636L205.16 38.6862H204.462C204.405 38.6862 204.318 38.6275 204.202 38.51C204.113 38.4219 204.056 38.3338 204.056 38.275C204.056 38.2163 204.113 38.1282 204.202 38.0107C204.318 37.8931 204.405 37.8344 204.462 37.8344H206.469ZM192.054 47.117V38.6862H191.24C191.154 38.6862 191.065 38.6275 190.978 38.5393C190.863 38.4219 190.804 38.3338 190.804 38.275C190.804 38.2163 190.863 38.1282 190.978 38.0107C191.065 37.8931 191.154 37.8344 191.24 37.8344H193.101V46.2653H198.36V37.8344H199.407V46.2653H200.656L200.54 49.4374H199.755L199.639 47.117H192.054ZM183.975 41.3297C183.975 43.2096 183.539 44.8554 182.697 46.2653H187.753V38.7156H183.975V41.3297ZM181.911 38.5393C181.825 38.4219 181.767 38.3338 181.767 38.275C181.767 38.2163 181.825 38.1282 181.911 38.0107C182.028 37.8931 182.087 37.8344 182.174 37.8344H188.8V46.2653H190.049L189.963 49.4374H189.148L189.032 47.117H181.621L181.534 49.4374H180.72L180.634 46.2653H181.651C181.825 45.9999 181.999 45.6778 182.174 45.3243C182.348 44.9719 182.523 44.4148 182.697 43.6207C182.901 42.8571 182.987 42.0346 182.987 41.1828V38.6862H182.174C182.116 38.6862 182.028 38.6275 181.911 38.5393ZM172.294 47.117H171.48V38.6862H170.666C170.609 38.6862 170.52 38.6275 170.404 38.5393C170.289 38.4219 170.259 38.3338 170.259 38.275C170.259 38.2163 170.289 38.1282 170.404 38.0107C170.52 37.8931 170.609 37.8344 170.666 37.8344H172.526V45.3537L178.135 37.8344H178.948V47.117H177.902V39.6261L172.294 47.117ZM166.278 38.7156H164.185V42.534H166.278C166.859 42.534 167.323 42.3578 167.672 42.0053C167.992 41.6528 168.166 41.1828 168.166 40.6248C168.166 40.0667 167.992 39.5967 167.672 39.2443C167.323 38.8919 166.859 38.7156 166.278 38.7156ZM162.064 38.5393C161.977 38.4219 161.919 38.3338 161.919 38.275C161.919 38.2163 161.977 38.1282 162.064 38.0107C162.18 37.8931 162.267 37.8344 162.325 37.8344H166.336C167.208 37.8344 167.905 38.0988 168.428 38.6275C168.98 39.1562 169.242 39.8318 169.242 40.6248C169.242 41.4472 168.98 42.0934 168.428 42.6221C167.905 43.1508 167.208 43.3858 166.336 43.3858H164.185V47.117H163.14V38.6862H162.325C162.267 38.6862 162.18 38.6275 162.064 38.5393ZM153.637 38.7156V37.8344H161.251V38.7156H157.996V47.117H156.921V38.7156H153.637ZM149.888 43.562L152.27 41.1241C152.329 41.1241 152.416 41.1828 152.533 41.3003C152.648 41.3884 152.678 41.4766 152.678 41.5647L150.906 43.6501L152.678 45.6778C152.678 45.7356 152.648 45.8247 152.533 45.9128C152.416 46.0293 152.329 46.0596 152.27 46.0596L149.888 43.7088V43.562ZM147.534 43.562L149.916 41.1241C150.005 41.1241 150.092 41.1828 150.178 41.3003C150.295 41.3884 150.353 41.4766 150.353 41.5647L148.551 43.6501L150.353 45.6778C150.353 45.7356 150.295 45.8247 150.178 45.9128C150.092 46.0293 150.005 46.0596 149.916 46.0596L147.534 43.7088V43.562ZM138.787 39.1562L136.811 43.6501H140.792L138.787 39.1562ZM139.281 37.8344L143.233 46.7636C143.233 46.7939 143.088 46.882 142.826 47.0289C142.565 47.1454 142.39 47.2041 142.303 47.2041L141.14 44.5019H136.462L135.271 47.2041C135.184 47.2041 135.039 47.1454 134.747 46.9995C134.486 46.882 134.37 46.7939 134.37 46.7636L137.972 38.6862H137.276C137.218 38.6862 137.131 38.6275 137.014 38.51C136.927 38.4219 136.87 38.3338 136.87 38.275C136.87 38.2163 136.927 38.1282 137.014 38.0107C137.131 37.8931 137.218 37.8344 137.276 37.8344H139.281ZM125.943 38.5393C125.855 38.4219 125.797 38.3338 125.797 38.275C125.797 38.2163 125.855 38.1282 125.943 38.0107C126.059 37.8931 126.146 37.8344 126.203 37.8344H128.064V41.9759L129.255 41.8878L132.568 37.7463C132.656 37.7463 132.801 37.8638 133.033 38.0401C133.237 38.2163 133.323 38.3631 133.323 38.4512L130.156 42.3578L133.527 46.5002C133.527 46.5884 133.44 46.7352 133.207 46.9104C133.004 47.117 132.859 47.2041 132.801 47.2041L129.198 42.7983L128.064 42.8864V47.117H127.018V38.6862H126.203C126.146 38.6862 126.059 38.6275 125.943 38.5393ZM117.602 47.117H116.789V38.6862H115.975C115.916 38.6862 115.83 38.6275 115.713 38.5393C115.597 38.4219 115.568 38.3338 115.568 38.275C115.568 38.2163 115.597 38.1282 115.713 38.0107C115.83 37.8931 115.916 37.8344 115.975 37.8344H117.835V45.3537L123.444 37.8344H124.256V47.117H123.212V39.6261L117.602 47.117ZM112.982 47.117V42.8277H107.548V47.117H106.502V38.6862H105.688C105.601 38.6862 105.513 38.6275 105.426 38.5393C105.31 38.4219 105.252 38.3338 105.252 38.275C105.252 38.2163 105.31 38.1282 105.426 38.0107C105.513 37.8931 105.601 37.8344 105.688 37.8344H107.548V41.9759H112.982V37.8344H114.028V47.117H112.982ZM97.0862 47.117H96.2425V38.6862H95.4292C95.3713 38.6862 95.2845 38.6275 95.168 38.5393C95.0812 38.4219 95.0226 38.3338 95.0226 38.275C95.0226 38.2163 95.0812 38.1282 95.168 38.0107C95.2845 37.8931 95.3713 37.8344 95.4292 37.8344H97.3185V45.3537L102.898 37.8344H103.741V47.117H102.695V39.6261L97.0862 47.117ZM86.6819 38.5393C86.5662 38.4219 86.5083 38.3338 86.5083 38.275C86.5083 38.2163 86.5662 38.1282 86.6819 38.0107C86.7695 37.8931 86.8563 37.8344 86.9149 37.8344H93.5118V47.117H92.4647V38.7156H88.7456V41.506C88.7456 42.2402 88.6588 42.9158 88.5133 43.562C88.3389 44.2376 88.1646 44.7662 87.9323 45.1775C87.6993 45.618 87.4663 45.9715 87.2348 46.2936C87.0018 46.6167 86.7984 46.8527 86.6248 46.9995C86.4497 47.1454 86.3621 47.2041 86.305 47.2041C86.2464 47.2041 86.1017 47.1454 85.9555 46.9995C85.8108 46.882 85.724 46.7636 85.724 46.6755C85.7818 46.6471 85.839 46.559 85.9273 46.4698C86.0423 46.3817 86.1885 46.1761 86.4215 45.8531C86.6538 45.5005 86.8563 45.1491 87.0315 44.7956C87.2058 44.4148 87.3795 43.9144 87.5249 43.2977C87.6704 42.6808 87.7572 42.0346 87.7572 41.3884V38.6862H86.9149C86.8563 38.6862 86.7695 38.6275 86.6819 38.5393ZM77.4123 38.5393C77.2957 38.4219 77.2676 38.3338 77.2676 38.275C77.2676 38.2163 77.2957 38.1282 77.4123 38.0107C77.5288 37.8931 77.6156 37.8344 77.6735 37.8344H79.533V41.9759L80.7255 41.8878L84.038 37.7463C84.1248 37.7463 84.2703 37.8638 84.5033 38.0401C84.7066 38.2163 84.7942 38.3631 84.7942 38.4512L81.6264 42.3578L84.9975 46.5002C84.9975 46.5884 84.9092 46.7352 84.6777 46.9104C84.4744 47.117 84.3282 47.2041 84.2413 47.2041L80.6669 42.7983L79.533 42.8864V47.117H78.4883V38.6862H77.6735C77.6156 38.6862 77.5288 38.6275 77.4123 38.5393ZM233.523 25.2915V21.5309H231.402C230.821 21.5309 230.355 21.7081 230.006 22.0605C229.658 22.412 229.483 22.8526 229.483 23.4117C229.483 23.9698 229.658 24.4103 230.006 24.7628C230.355 25.1152 230.821 25.2915 231.402 25.2915H233.523ZM233.523 29.9323V26.1433H231.576C230.907 27.5238 229.978 28.8161 228.786 30.0204C228.698 30.0204 228.554 29.9323 228.38 29.7561C228.175 29.5798 228.088 29.433 228.088 29.3448C229.018 28.4049 229.861 27.3182 230.588 26.0845C229.919 25.9377 229.396 25.6146 228.99 25.1446C228.582 24.6453 228.38 24.0872 228.38 23.4117C228.38 22.6186 228.67 21.943 229.221 21.4427C229.774 20.914 230.472 20.6507 231.343 20.6507H234.569V29.9323H233.523ZM222.742 21.943L220.765 26.4664H224.717L222.742 21.943ZM223.206 20.6507L227.188 29.5798C227.188 29.6092 227.043 29.6973 226.781 29.8148C226.52 29.9617 226.345 30.0204 226.258 30.0204L225.067 27.3182H220.416L219.225 30.0204C219.138 30.0204 218.964 29.9617 218.703 29.8148C218.441 29.6973 218.295 29.6092 218.295 29.5798L221.928 21.5015H221.231C221.173 21.5015 221.085 21.4427 220.968 21.3263C220.853 21.2382 220.824 21.149 220.824 21.0912C220.824 21.0021 220.853 20.914 220.968 20.8259C221.085 20.7084 221.173 20.6507 221.231 20.6507H223.206ZM209.897 21.3263C209.781 21.2382 209.752 21.149 209.752 21.0912C209.752 21.0021 209.781 20.914 209.897 20.8259C210.014 20.7084 210.1 20.6507 210.158 20.6507H212.019V24.7922L213.21 24.6747L216.523 20.5615C216.61 20.5615 216.756 20.6507 216.958 20.8553C217.191 21.0325 217.278 21.1793 217.278 21.2675L214.11 25.174L217.482 29.3155C217.482 29.4036 217.365 29.5211 217.162 29.7267C216.958 29.9323 216.814 30.0204 216.726 30.0204L213.152 25.5852L212.019 25.7027V29.9323H210.972V21.5015H210.158C210.1 21.5015 210.014 21.4427 209.897 21.3263ZM207.718 23.4704V22.3238C207.078 21.7668 206.294 21.5015 205.335 21.5015C204.259 21.5015 203.388 21.8549 202.748 22.5305C202.108 23.2345 201.789 24.146 201.789 25.2915C201.789 26.437 202.108 27.3476 202.748 28.0525C203.416 28.7574 204.289 29.0805 205.335 29.0805C206.497 29.0805 207.398 28.728 208.066 28.0231C208.153 28.0231 208.298 28.1112 208.444 28.2875C208.618 28.4637 208.676 28.5812 208.676 28.6693C207.833 29.5798 206.7 30.0204 205.335 30.0204C203.969 30.0204 202.865 29.5798 201.992 28.6693C201.121 27.7881 200.684 26.672 200.684 25.2915C200.684 23.911 201.092 22.7948 201.963 21.9137C202.835 21.0021 203.939 20.5615 205.276 20.5615C206.613 20.5615 207.688 21.0021 208.561 21.8549V23.4704C208.561 23.5282 208.501 23.6173 208.386 23.7347C208.298 23.8523 208.182 23.911 208.124 23.911C208.066 23.911 207.98 23.8523 207.863 23.7347C207.747 23.6173 207.718 23.5282 207.718 23.4704ZM192.025 21.3263C191.908 21.2382 191.88 21.149 191.88 21.0912C191.88 21.0021 191.908 20.914 192.025 20.8259C192.141 20.7084 192.228 20.6507 192.286 20.6507H199.087V21.5309H194.146V24.7628H198.564V25.644H194.146V29.0805H199.145V29.9323H193.101V21.5015H192.286C192.228 21.5015 192.141 21.4427 192.025 21.3263ZM189.323 29.9323V25.7027C188.537 26.2607 187.637 26.5251 186.592 26.5251C184.701 26.5251 183.744 25.5265 183.744 23.5585V21.5015H182.929C182.871 21.5015 182.784 21.4427 182.668 21.3263C182.581 21.2382 182.523 21.149 182.523 21.0912C182.523 21.0021 182.581 20.914 182.668 20.8259C182.784 20.7084 182.871 20.6507 182.929 20.6507H184.789V23.5282C184.789 24.2341 184.964 24.7628 185.284 25.1152C185.602 25.4383 186.125 25.6146 186.795 25.6146C187.753 25.6146 188.596 25.3502 189.323 24.7922V20.6507H190.369V29.9323H189.323ZM174.357 29.9323H173.514V21.5015H172.7C172.642 21.5015 172.555 21.4427 172.439 21.3263C172.351 21.2382 172.294 21.149 172.294 21.0912C172.294 21.0021 172.351 20.914 172.439 20.8259C172.555 20.7084 172.642 20.6507 172.7 20.6507H174.561V28.1406L180.168 20.6507H181.011V29.9323H179.966V22.4424L174.357 29.9323ZM165.028 21.3263C164.912 21.2382 164.884 21.149 164.884 21.0912C164.884 21.0021 164.912 20.914 165.028 20.8259C165.145 20.7084 165.232 20.6507 165.29 20.6507H171.624V21.5309H167.151V29.9323H166.103V21.5015H165.29C165.232 21.5015 165.145 21.4427 165.028 21.3263ZM156.659 22.5305C156.02 23.2345 155.7 24.1753 155.7 25.2915C155.7 26.437 156.02 27.3476 156.659 28.0525C157.327 28.7574 158.17 29.0805 159.187 29.0805C160.233 29.0805 161.076 28.7574 161.715 28.0525C162.355 27.3476 162.674 26.437 162.674 25.2915C162.674 24.1753 162.355 23.2345 161.715 22.5305C161.076 21.8549 160.233 21.5015 159.187 21.5015C158.141 21.5015 157.298 21.8549 156.659 22.5305ZM155.904 28.6693C155.031 27.7881 154.596 26.6426 154.596 25.2915C154.596 23.9404 155.031 22.7948 155.904 21.9137C156.775 21.0021 157.851 20.5615 159.187 20.5615C160.523 20.5615 161.629 21.0021 162.5 21.9137C163.373 22.7948 163.808 23.9404 163.808 25.2915C163.808 26.6426 163.373 27.7881 162.5 28.6693C161.629 29.5798 160.523 30.0204 159.187 30.0204C157.851 30.0204 156.775 29.5798 155.904 28.6693ZM145.732 21.3263C145.616 21.2382 145.587 21.149 145.587 21.0912C145.587 21.0021 145.616 20.914 145.732 20.8259C145.82 20.7084 145.907 20.6507 145.994 20.6507H152.562V29.9323H151.516V21.5309H147.796V24.3222C147.796 25.0271 147.708 25.7321 147.563 26.3783C147.388 27.0244 147.215 27.5825 146.982 27.9937C146.749 28.4049 146.517 28.7867 146.284 29.1099C146.052 29.433 145.849 29.6679 145.674 29.8148C145.5 29.9617 145.413 30.0204 145.354 30.0204C145.296 30.0204 145.18 29.9617 145.006 29.8148C144.86 29.6679 144.773 29.5798 144.773 29.4917C144.831 29.433 144.89 29.3742 144.977 29.2861C145.093 29.198 145.238 28.9924 145.471 28.6399C145.732 28.3168 145.936 27.9643 146.11 27.5825C146.284 27.2301 146.43 26.7307 146.575 26.1139C146.72 25.4971 146.807 24.8509 146.807 24.2047V21.5015H145.994C145.907 21.5015 145.849 21.4427 145.732 21.3263ZM136.84 22.5305C136.2 23.2345 135.881 24.1753 135.881 25.2915C135.881 26.437 136.2 27.3476 136.87 28.0525C137.508 28.7574 138.351 29.0805 139.368 29.0805C140.414 29.0805 141.257 28.7574 141.896 28.0525C142.565 27.3476 142.885 26.437 142.885 25.2915C142.885 24.1753 142.565 23.2345 141.896 22.5305C141.257 21.8549 140.414 21.5015 139.368 21.5015C138.351 21.5015 137.508 21.8549 136.84 22.5305ZM136.084 28.6693C135.213 27.7881 134.776 26.6426 134.776 25.2915C134.776 23.9404 135.213 22.7948 136.084 21.9137C136.957 21.0021 138.061 20.5615 139.368 20.5615C140.705 20.5615 141.81 21.0021 142.681 21.9137C143.553 22.7948 143.989 23.9404 143.989 25.2915C143.989 26.6426 143.553 27.7881 142.681 28.6693C141.81 29.5798 140.705 30.0204 139.368 30.0204C138.061 30.0204 136.957 29.5798 136.084 28.6693ZM126.378 21.5309V20.6507H133.992V21.5309H130.737V29.9323H129.691V21.5309H126.378ZM122.339 21.943L120.392 26.4664H124.345L122.339 21.943ZM122.834 20.6507L126.785 29.5798C126.785 29.6092 126.64 29.6973 126.378 29.8148C126.117 29.9617 125.943 30.0204 125.855 30.0204L124.693 27.3182H120.014L118.823 30.0204C118.764 30.0204 118.59 29.9617 118.3 29.8148C118.038 29.6973 117.921 29.6092 117.921 29.5798L121.525 21.5015H120.828C120.769 21.5015 120.683 21.4427 120.567 21.3263C120.479 21.2382 120.421 21.149 120.421 21.0912C120.421 21.0021 120.479 20.914 120.567 20.8259C120.683 20.7084 120.769 20.6507 120.828 20.6507H122.834ZM105.803 21.0912C105.803 21.0021 105.862 20.914 105.978 20.8259C106.066 20.7084 106.153 20.6507 106.239 20.6507H108.244L111.384 28.1406L114.492 20.6507H115.626L116.701 29.8148C116.701 29.8442 116.556 29.8736 116.295 29.9323C116.033 29.9617 115.83 29.9911 115.713 29.9911L114.87 22.3543L111.791 29.6679H110.948L107.867 22.3543L107.024 29.9911C106.909 29.9911 106.734 29.9617 106.443 29.9323C106.182 29.8736 106.036 29.8442 106.036 29.8148L106.996 21.5015H106.239C106.153 21.5015 106.066 21.4427 105.978 21.3263C105.862 21.2382 105.803 21.149 105.803 21.0912ZM97.173 22.5305C96.5334 23.2345 96.2143 24.1753 96.2143 25.2915C96.2143 26.437 96.5334 27.3476 97.173 28.0525C97.8416 28.7574 98.6838 29.0805 99.702 29.0805C100.747 29.0805 101.59 28.7574 102.23 28.0525C102.868 27.3476 103.188 26.437 103.188 25.2915C103.188 24.1753 102.868 23.2345 102.23 22.5305C101.59 21.8549 100.747 21.5015 99.702 21.5015C98.6541 21.5015 97.8127 21.8549 97.173 22.5305ZM96.4169 28.6693C95.5457 27.7881 95.1094 26.6426 95.1094 25.2915C95.1094 23.9404 95.5457 22.7948 96.4169 21.9137C97.2895 21.0021 98.364 20.5615 99.702 20.5615C101.038 20.5615 102.142 21.0021 103.014 21.9137C103.886 22.7948 104.322 23.9404 104.322 25.2915C104.322 26.6426 103.886 27.7881 103.014 28.6693C102.142 29.5798 101.038 30.0204 99.702 30.0204C98.364 30.0204 97.2895 29.5798 96.4169 28.6693ZM86.7116 21.5309V20.6507H94.325V21.5309H91.0407V29.9323H89.996V21.5309H86.7116ZM84.7942 23.4704V22.3238C84.1835 21.7668 83.3984 21.5015 82.4396 21.5015C81.3355 21.5015 80.4925 21.8549 79.8528 22.5305C79.2132 23.2345 78.8949 24.146 78.8949 25.2915C78.8949 26.437 79.2132 27.3476 79.8528 28.0525C80.5207 28.7574 81.3644 29.0805 82.4396 29.0805C83.6017 29.0805 84.5033 28.728 85.1711 28.0231C85.2587 28.0231 85.3744 28.1112 85.5488 28.2875C85.6943 28.4637 85.7818 28.5812 85.7818 28.6693C84.9389 29.5798 83.8058 30.0204 82.4107 30.0204C81.0735 30.0204 79.9404 29.5798 79.0685 28.6693C78.1974 27.7881 77.761 26.672 77.761 25.2915C77.761 23.911 78.1974 22.7948 79.0685 21.9137C79.9404 21.0021 81.0453 20.5615 82.381 20.5615C83.7182 20.5615 84.7942 21.0021 85.6653 21.8549V23.4704C85.6653 23.5282 85.6075 23.6173 85.491 23.7347C85.3744 23.8523 85.2876 23.911 85.229 23.911C85.1422 23.911 85.0546 23.8523 84.9678 23.7347C84.8513 23.6173 84.7942 23.5282 84.7942 23.4704Z" fill="#30559D"/>
<path d="M262.073 40.8852L264.514 43.2644V43.4112L262.132 45.7904C262.073 45.7904 261.986 45.7326 261.871 45.6142C261.783 45.527 261.724 45.4389 261.724 45.3498L263.497 43.3231L261.668 41.3258C261.668 41.2377 261.724 41.1495 261.812 41.0614C261.927 40.9439 261.986 40.8852 262.073 40.8852ZM259.721 40.8852L262.161 43.2644V43.4112L259.777 45.7904C259.721 45.7904 259.632 45.7326 259.545 45.6142C259.43 45.527 259.371 45.4389 259.371 45.3498L261.173 43.3231L259.312 41.3258C259.312 41.2377 259.371 41.1495 259.458 41.0614C259.574 40.9439 259.661 40.8852 259.721 40.8852ZM253.821 38.9173L251.874 43.4112H255.826L253.821 38.9173ZM254.315 37.5955L258.266 46.5247C258.266 46.555 258.15 46.6432 257.888 46.79C257.627 46.9065 257.454 46.9652 257.366 46.9652L256.174 44.263H251.496L250.305 46.9652C250.245 46.9652 250.072 46.9065 249.811 46.7606C249.52 46.6432 249.402 46.555 249.402 46.5247L253.006 38.4473H252.31C252.252 38.4473 252.164 38.3886 252.048 38.2711C251.961 38.183 251.902 38.0949 251.902 38.0361C251.902 37.9774 251.961 37.8893 252.048 37.7718C252.164 37.6542 252.252 37.5955 252.31 37.5955H254.315ZM245.103 38.4767H243.01V41.7076H245.103C245.654 41.7076 246.091 41.5608 246.439 41.2377C246.759 40.9439 246.934 40.5621 246.934 40.0921C246.934 39.6222 246.759 39.211 246.439 38.9173C246.091 38.6236 245.654 38.4767 245.103 38.4767ZM245.48 42.5594H243.01V46.0264H245.48C246.062 46.0264 246.526 45.8491 246.875 45.5554C247.195 45.2323 247.369 44.7917 247.369 44.2924C247.369 43.7637 247.195 43.3525 246.875 43.0294C246.526 42.7356 246.062 42.5594 245.48 42.5594ZM240.889 38.3005C240.773 38.183 240.714 38.0949 240.714 38.0361C240.714 37.9774 240.773 37.8893 240.889 37.7718C240.976 37.6542 241.063 37.5955 241.151 37.5955H245.162C246.003 37.5955 246.672 37.8305 247.195 38.2711C247.718 38.7117 247.98 39.2991 247.98 40.004C247.98 40.4447 247.863 40.8558 247.63 41.2083C247.399 41.5608 247.079 41.8545 246.701 42.0601C247.224 42.2364 247.66 42.53 247.98 42.9413C248.3 43.3525 248.444 43.8225 248.444 44.3805C248.444 45.1148 248.183 45.7326 247.66 46.1732C247.107 46.6432 246.41 46.8781 245.51 46.8781H241.964V38.4473H241.151C241.063 38.4473 240.976 38.3886 240.889 38.3005ZM233.885 41.0908C233.885 42.9707 233.449 44.6165 232.607 46.0264H237.663V38.4767H233.885V41.0908ZM231.822 38.3005C231.735 38.183 231.677 38.0949 231.677 38.0361C231.677 37.9774 231.735 37.8893 231.822 37.7718C231.909 37.6542 231.997 37.5955 232.084 37.5955H238.709V46.0264H239.958L239.871 49.1985H239.057L238.942 46.8781H231.532L231.444 49.1985H230.631L230.544 46.0264H231.561C231.735 45.761 231.909 45.4389 232.084 45.0854C232.258 44.733 232.432 44.1759 232.607 43.3818C232.809 42.6182 232.898 41.7957 232.898 40.9439V38.4473H232.084C232.025 38.4473 231.938 38.3886 231.822 38.3005ZM222.988 42.4419H220.547V46.0264H222.988C223.569 46.0264 224.034 45.8491 224.383 45.527C224.731 45.1735 224.906 44.7634 224.906 44.2043C224.906 43.6755 224.731 43.2644 224.383 42.9413C224.034 42.5888 223.569 42.4419 222.988 42.4419ZM219.501 46.8781V37.5955H220.547V41.5608H223.046C223.918 41.5608 224.645 41.7957 225.168 42.2951C225.719 42.7944 225.98 43.4406 225.98 44.2043C225.98 44.9983 225.719 45.6435 225.168 46.1428C224.645 46.6432 223.918 46.8781 223.046 46.8781H219.501ZM210.289 38.4767V37.5955H217.902V38.4767H214.648V46.8781H213.601V38.4767H210.289ZM206.249 38.9173L204.273 43.4112H208.255L206.249 38.9173ZM206.744 37.5955L210.695 46.5247C210.695 46.555 210.55 46.6432 210.289 46.79C210.027 46.9065 209.853 46.9652 209.766 46.9652L208.603 44.263H203.924L202.733 46.9652C202.675 46.9652 202.5 46.9065 202.21 46.7606C201.948 46.6432 201.833 46.555 201.833 46.5247L205.435 38.4473H204.738C204.681 38.4473 204.593 38.3886 204.477 38.2711C204.389 38.183 204.331 38.0949 204.331 38.0361C204.331 37.9774 204.389 37.8893 204.477 37.7718C204.593 37.6542 204.681 37.5955 204.738 37.5955H206.744ZM192.33 46.8781V38.4473H191.516C191.429 38.4473 191.341 38.3886 191.254 38.3005C191.138 38.183 191.079 38.0949 191.079 38.0361C191.079 37.9774 191.138 37.8893 191.254 37.7718C191.341 37.6542 191.429 37.5955 191.516 37.5955H193.376V46.0264H198.636V37.5955H199.682V46.0264H200.931L200.815 49.1985H200.03L199.914 46.8781H192.33ZM184.25 41.0908C184.25 42.9707 183.814 44.6165 182.973 46.0264H188.028V38.4767H184.25V41.0908ZM182.187 38.3005C182.1 38.183 182.042 38.0949 182.042 38.0361C182.042 37.9774 182.1 37.8893 182.187 37.7718C182.303 37.6542 182.362 37.5955 182.449 37.5955H189.075V46.0264H190.325L190.238 49.1985H189.423L189.307 46.8781H181.897L181.81 49.1985H180.996L180.909 46.0264H181.926C182.1 45.761 182.274 45.4389 182.449 45.0854C182.623 44.733 182.798 44.1759 182.973 43.3818C183.176 42.6182 183.263 41.7957 183.263 40.9439V38.4473H182.449C182.392 38.4473 182.303 38.3886 182.187 38.3005ZM172.569 46.8781H171.755V38.4473H170.942C170.884 38.4473 170.796 38.3886 170.679 38.3005C170.564 38.183 170.534 38.0949 170.534 38.0361C170.534 37.9774 170.564 37.8893 170.679 37.7718C170.796 37.6542 170.884 37.5955 170.942 37.5955H172.801V45.1148L178.411 37.5955H179.224V46.8781H178.177V39.3872L172.569 46.8781ZM166.553 38.4767H164.461V42.2951H166.553C167.134 42.2951 167.599 42.1189 167.948 41.7664C168.267 41.4139 168.442 40.9439 168.442 40.3859C168.442 39.8278 168.267 39.3578 167.948 39.0054C167.599 38.653 167.134 38.4767 166.553 38.4767ZM162.339 38.3005C162.252 38.183 162.194 38.0949 162.194 38.0361C162.194 37.9774 162.252 37.8893 162.339 37.7718C162.456 37.6542 162.542 37.5955 162.6 37.5955H166.611C167.483 37.5955 168.181 37.8599 168.704 38.3886C169.255 38.9173 169.518 39.5929 169.518 40.3859C169.518 41.2083 169.255 41.8545 168.704 42.3832C168.181 42.9119 167.483 43.1469 166.611 43.1469H164.461V46.8781H163.415V38.4473H162.6C162.542 38.4473 162.456 38.3886 162.339 38.3005ZM153.912 38.4767V37.5955H161.526V38.4767H158.271V46.8781H157.196V38.4767H153.912ZM150.164 43.3231L152.546 40.8852C152.604 40.8852 152.692 40.9439 152.808 41.0614C152.923 41.1495 152.953 41.2377 152.953 41.3258L151.181 43.4112L152.953 45.4389C152.953 45.4967 152.923 45.5858 152.808 45.6739C152.692 45.7904 152.604 45.8207 152.546 45.8207L150.164 43.47V43.3231ZM147.81 43.3231L150.192 40.8852C150.28 40.8852 150.367 40.9439 150.454 41.0614C150.57 41.1495 150.628 41.2377 150.628 41.3258L148.826 43.4112L150.628 45.4389C150.628 45.4967 150.57 45.5858 150.454 45.6739C150.367 45.7904 150.28 45.8207 150.192 45.8207L147.81 43.47V43.3231ZM139.063 38.9173L137.086 43.4112H141.068L139.063 38.9173ZM139.557 37.5955L143.508 46.5247C143.508 46.555 143.363 46.6432 143.102 46.79C142.84 46.9065 142.665 46.9652 142.578 46.9652L141.416 44.263H136.737L135.546 46.9652C135.459 46.9652 135.314 46.9065 135.023 46.7606C134.762 46.6432 134.645 46.555 134.645 46.5247L138.248 38.4473H137.552C137.493 38.4473 137.406 38.3886 137.29 38.2711C137.202 38.183 137.145 38.0949 137.145 38.0361C137.145 37.9774 137.202 37.8893 137.29 37.7718C137.406 37.6542 137.493 37.5955 137.552 37.5955H139.557ZM126.218 38.3005C126.131 38.183 126.072 38.0949 126.072 38.0361C126.072 37.9774 126.131 37.8893 126.218 37.7718C126.334 37.6542 126.422 37.5955 126.479 37.5955H128.339V41.737L129.53 41.6489L132.843 37.5074C132.931 37.5074 133.076 37.6249 133.309 37.8012C133.512 37.9774 133.599 38.1242 133.599 38.2123L130.431 42.1189L133.802 46.2614C133.802 46.3495 133.715 46.4963 133.482 46.6715C133.279 46.8781 133.134 46.9652 133.076 46.9652L129.473 42.5594L128.339 42.6475V46.8781H127.293V38.4473H126.479C126.422 38.4473 126.334 38.3886 126.218 38.3005ZM117.878 46.8781H117.065V38.4473H116.25C116.192 38.4473 116.105 38.3886 115.989 38.3005C115.872 38.183 115.844 38.0949 115.844 38.0361C115.844 37.9774 115.872 37.8893 115.989 37.7718C116.105 37.6542 116.192 37.5955 116.25 37.5955H118.111V45.1148L123.719 37.5955H124.532V46.8781H123.487V39.3872L117.878 46.8781ZM113.257 46.8781V42.5888H107.824V46.8781H106.777V38.4473H105.963C105.877 38.4473 105.788 38.3886 105.702 38.3005C105.585 38.183 105.527 38.0949 105.527 38.0361C105.527 37.9774 105.585 37.8893 105.702 37.7718C105.788 37.6542 105.877 37.5955 105.963 37.5955H107.824V41.737H113.257V37.5955H114.303V46.8781H113.257ZM97.3616 46.8781H96.5179V38.4473H95.7046C95.6467 38.4473 95.5599 38.3886 95.4434 38.3005C95.3566 38.183 95.298 38.0949 95.298 38.0361C95.298 37.9774 95.3566 37.8893 95.4434 37.7718C95.5599 37.6542 95.6467 37.5955 95.7046 37.5955H97.5939V45.1148L103.173 37.5955H104.016V46.8781H102.97V39.3872L97.3616 46.8781ZM86.9573 38.3005C86.8416 38.183 86.7837 38.0949 86.7837 38.0361C86.7837 37.9774 86.8416 37.8893 86.9573 37.7718C87.0449 37.6542 87.1317 37.5955 87.1903 37.5955H93.7872V46.8781H92.7401V38.4767H89.021V41.2671C89.021 42.0013 88.9342 42.6769 88.7887 43.3231C88.6143 43.9987 88.44 44.5273 88.2077 44.9386C87.9747 45.3791 87.7417 45.7326 87.5102 46.0547C87.2771 46.3778 87.0738 46.6138 86.9002 46.7606C86.7251 46.9065 86.6375 46.9652 86.5804 46.9652C86.5217 46.9652 86.3771 46.9065 86.2309 46.7606C86.0862 46.6432 85.9994 46.5247 85.9994 46.4366C86.0572 46.4082 86.1143 46.3201 86.2027 46.2309C86.3177 46.1428 86.4639 45.9372 86.6969 45.6142C86.9291 45.2616 87.1317 44.9102 87.3068 44.5567C87.4812 44.1759 87.6549 43.6755 87.8003 43.0588C87.9457 42.4419 88.0325 41.7957 88.0325 41.1495V38.4473H87.1903C87.1317 38.4473 87.0449 38.3886 86.9573 38.3005ZM77.6876 38.3005C77.5711 38.183 77.543 38.0949 77.543 38.0361C77.543 37.9774 77.5711 37.8893 77.6876 37.7718C77.8042 37.6542 77.891 37.5955 77.9488 37.5955H79.8084V41.737L81.0009 41.6489L84.3134 37.5074C84.4002 37.5074 84.5457 37.6249 84.7787 37.8012C84.982 37.9774 85.0696 38.1242 85.0696 38.2123L81.9018 42.1189L85.2729 46.2614C85.2729 46.3495 85.1846 46.4963 84.9531 46.6715C84.7497 46.8781 84.6035 46.9652 84.5167 46.9652L80.9423 42.5594L79.8084 42.6475V46.8781H78.7636V38.4473H77.9488C77.891 38.4473 77.8042 38.3886 77.6876 38.3005ZM233.799 25.0526V21.292H231.677C231.096 21.292 230.631 21.4692 230.281 21.8216C229.933 22.1731 229.758 22.6137 229.758 23.1728C229.758 23.7309 229.933 24.1714 230.281 24.5239C230.631 24.8764 231.096 25.0526 231.677 25.0526H233.799ZM233.799 29.6934V25.9044H231.851C231.183 27.2849 230.253 28.5772 229.061 29.7815C228.974 29.7815 228.829 29.6934 228.655 29.5172C228.451 29.3409 228.364 29.1941 228.364 29.106C229.294 28.1661 230.137 27.0793 230.864 25.8456C230.194 25.6988 229.671 25.3757 229.265 24.9057C228.857 24.4064 228.655 23.8483 228.655 23.1728C228.655 22.3797 228.946 21.7041 229.497 21.2038C230.049 20.6751 230.747 20.4118 231.618 20.4118H234.845V29.6934H233.799ZM223.017 21.7041L221.04 26.2275H224.993L223.017 21.7041ZM223.482 20.4118L227.463 29.3409C227.463 29.3703 227.318 29.4584 227.056 29.5759C226.795 29.7228 226.62 29.7815 226.533 29.7815L225.342 27.0793H220.692L219.501 29.7815C219.413 29.7815 219.24 29.7228 218.978 29.5759C218.716 29.4584 218.57 29.3703 218.57 29.3409L222.203 21.2626H221.507C221.448 21.2626 221.36 21.2038 221.244 21.0874C221.128 20.9993 221.099 20.9101 221.099 20.8523C221.099 20.7633 221.128 20.6751 221.244 20.587C221.36 20.4696 221.448 20.4118 221.507 20.4118H223.482ZM210.172 21.0874C210.056 20.9993 210.027 20.9101 210.027 20.8523C210.027 20.7633 210.056 20.6751 210.172 20.587C210.289 20.4696 210.376 20.4118 210.434 20.4118H212.294V24.5533L213.485 24.4358L216.798 20.3226C216.885 20.3226 217.031 20.4118 217.234 20.6164C217.466 20.7936 217.554 20.9405 217.554 21.0286L214.386 24.9351L217.757 29.0766C217.757 29.1647 217.64 29.2822 217.438 29.4878C217.234 29.6934 217.089 29.7815 217.002 29.7815L213.427 25.3463L212.294 25.4638V29.6934H211.248V21.2626H210.434C210.376 21.2626 210.289 21.2038 210.172 21.0874ZM207.993 23.2315V22.085C207.353 21.5279 206.569 21.2626 205.61 21.2626C204.534 21.2626 203.663 21.616 203.024 22.2916C202.384 22.9956 202.064 23.9071 202.064 25.0526C202.064 26.1981 202.384 27.1087 203.024 27.8136C203.691 28.5185 204.564 28.8416 205.61 28.8416C206.772 28.8416 207.673 28.4891 208.342 27.7842C208.429 27.7842 208.573 27.8724 208.72 28.0486C208.893 28.2248 208.952 28.3423 208.952 28.4304C208.109 29.3409 206.976 29.7815 205.61 29.7815C204.244 29.7815 203.14 29.3409 202.267 28.4304C201.396 27.5492 200.96 26.4331 200.96 25.0526C200.96 23.6721 201.367 22.5559 202.238 21.6748C203.11 20.7633 204.215 20.3226 205.552 20.3226C206.889 20.3226 207.963 20.7633 208.836 21.616V23.2315C208.836 23.2893 208.777 23.3784 208.662 23.4958C208.573 23.6134 208.458 23.6721 208.4 23.6721C208.342 23.6721 208.255 23.6134 208.138 23.4958C208.022 23.3784 207.993 23.2893 207.993 23.2315ZM192.3 21.0874C192.184 20.9993 192.155 20.9101 192.155 20.8523C192.155 20.7633 192.184 20.6751 192.3 20.587C192.417 20.4696 192.503 20.4118 192.561 20.4118H199.362V21.292H194.422V24.5239H198.839V25.4051H194.422V28.8416H199.42V29.6934H193.376V21.2626H192.561C192.503 21.2626 192.417 21.2038 192.3 21.0874ZM189.598 29.6934V25.4638C188.813 26.0218 187.912 26.2862 186.867 26.2862C184.977 26.2862 184.019 25.2876 184.019 23.3196V21.2626H183.204C183.146 21.2626 183.059 21.2038 182.943 21.0874C182.856 20.9993 182.798 20.9101 182.798 20.8523C182.798 20.7633 182.856 20.6751 182.943 20.587C183.059 20.4696 183.146 20.4118 183.204 20.4118H185.064V23.2893C185.064 23.9952 185.24 24.5239 185.559 24.8764C185.878 25.1994 186.401 25.3757 187.07 25.3757C188.028 25.3757 188.871 25.1113 189.598 24.5533V20.4118H190.644V29.6934H189.598ZM174.632 29.6934H173.789V21.2626H172.976C172.917 21.2626 172.83 21.2038 172.715 21.0874C172.626 20.9993 172.569 20.9101 172.569 20.8523C172.569 20.7633 172.626 20.6751 172.715 20.587C172.83 20.4696 172.917 20.4118 172.976 20.4118H174.836V27.9017L180.444 20.4118H181.287V29.6934H180.241V22.2035L174.632 29.6934ZM165.304 21.0874C165.187 20.9993 165.159 20.9101 165.159 20.8523C165.159 20.7633 165.187 20.6751 165.304 20.587C165.42 20.4696 165.507 20.4118 165.566 20.4118H171.9V21.292H167.426V29.6934H166.378V21.2626H165.566C165.507 21.2626 165.42 21.2038 165.304 21.0874ZM156.934 22.2916C156.295 22.9956 155.975 23.9365 155.975 25.0526C155.975 26.1981 156.295 27.1087 156.934 27.8136C157.603 28.5185 158.446 28.8416 159.462 28.8416C160.509 28.8416 161.352 28.5185 161.99 27.8136C162.63 27.1087 162.95 26.1981 162.95 25.0526C162.95 23.9365 162.63 22.9956 161.99 22.2916C161.352 21.616 160.509 21.2626 159.462 21.2626C158.417 21.2626 157.574 21.616 156.934 22.2916ZM156.179 28.4304C155.307 27.5492 154.871 26.4037 154.871 25.0526C154.871 23.7015 155.307 22.5559 156.179 21.6748C157.051 20.7633 158.127 20.3226 159.462 20.3226C160.799 20.3226 161.904 20.7633 162.776 21.6748C163.648 22.5559 164.083 23.7015 164.083 25.0526C164.083 26.4037 163.648 27.5492 162.776 28.4304C161.904 29.3409 160.799 29.7815 159.462 29.7815C158.127 29.7815 157.051 29.3409 156.179 28.4304ZM146.007 21.0874C145.892 20.9993 145.863 20.9101 145.863 20.8523C145.863 20.7633 145.892 20.6751 146.007 20.587C146.095 20.4696 146.183 20.4118 146.269 20.4118H152.837V29.6934H151.791V21.292H148.072V24.0833C148.072 24.7882 147.983 25.4932 147.839 26.1394C147.664 26.7855 147.49 27.3436 147.257 27.7548C147.024 28.1661 146.792 28.5479 146.559 28.871C146.327 29.1941 146.124 29.429 145.95 29.5759C145.775 29.7228 145.688 29.7815 145.63 29.7815C145.572 29.7815 145.455 29.7228 145.282 29.5759C145.135 29.429 145.049 29.3409 145.049 29.2528C145.107 29.1941 145.165 29.1353 145.252 29.0472C145.369 28.9591 145.513 28.7535 145.746 28.401C146.007 28.0779 146.211 27.7254 146.386 27.3436C146.559 26.9912 146.706 26.4918 146.85 25.875C146.996 25.2582 147.083 24.612 147.083 23.9658V21.2626H146.269C146.183 21.2626 146.124 21.2038 146.007 21.0874ZM137.115 22.2916C136.476 22.9956 136.156 23.9365 136.156 25.0526C136.156 26.1981 136.476 27.1087 137.145 27.8136C137.783 28.5185 138.626 28.8416 139.644 28.8416C140.69 28.8416 141.533 28.5185 142.172 27.8136C142.84 27.1087 143.16 26.1981 143.16 25.0526C143.16 23.9365 142.84 22.9956 142.172 22.2916C141.533 21.616 140.69 21.2626 139.644 21.2626C138.626 21.2626 137.783 21.616 137.115 22.2916ZM136.359 28.4304C135.488 27.5492 135.052 26.4037 135.052 25.0526C135.052 23.7015 135.488 22.5559 136.359 21.6748C137.232 20.7633 138.336 20.3226 139.644 20.3226C140.981 20.3226 142.085 20.7633 142.956 21.6748C143.828 22.5559 144.264 23.7015 144.264 25.0526C144.264 26.4037 143.828 27.5492 142.956 28.4304C142.085 29.3409 140.981 29.7815 139.644 29.7815C138.336 29.7815 137.232 29.3409 136.359 28.4304ZM126.653 21.292V20.4118H134.267V21.292H131.013V29.6934H129.967V21.292H126.653ZM122.614 21.7041L120.667 26.2275H124.62L122.614 21.7041ZM123.109 20.4118L127.06 29.3409C127.06 29.3703 126.915 29.4584 126.653 29.5759C126.392 29.7228 126.218 29.7815 126.131 29.7815L124.968 27.0793H120.289L119.098 29.7815C119.04 29.7815 118.865 29.7228 118.575 29.5759C118.313 29.4584 118.197 29.3703 118.197 29.3409L121.8 21.2626H121.103C121.045 21.2626 120.959 21.2038 120.842 21.0874C120.754 20.9993 120.697 20.9101 120.697 20.8523C120.697 20.7633 120.754 20.6751 120.842 20.587C120.959 20.4696 121.045 20.4118 121.103 20.4118H123.109ZM106.078 20.8523C106.078 20.7633 106.138 20.6751 106.254 20.587C106.341 20.4696 106.428 20.4118 106.515 20.4118H108.52L111.659 27.9017L114.768 20.4118H115.902L116.976 29.5759C116.976 29.6053 116.832 29.6347 116.57 29.6934C116.308 29.7228 116.105 29.7522 115.989 29.7522L115.146 22.1154L112.066 29.429H111.223L108.142 22.1154L107.299 29.7522C107.184 29.7522 107.009 29.7228 106.718 29.6934C106.458 29.6347 106.311 29.6053 106.311 29.5759L107.271 21.2626H106.515C106.428 21.2626 106.341 21.2038 106.254 21.0874C106.138 20.9993 106.078 20.9101 106.078 20.8523ZM97.4484 22.2916C96.8088 22.9956 96.4897 23.9365 96.4897 25.0526C96.4897 26.1981 96.8088 27.1087 97.4484 27.8136C98.117 28.5185 98.9592 28.8416 99.9774 28.8416C101.023 28.8416 101.866 28.5185 102.506 27.8136C103.144 27.1087 103.463 26.1981 103.463 25.0526C103.463 23.9365 103.144 22.9956 102.506 22.2916C101.866 21.616 101.023 21.2626 99.9774 21.2626C98.9295 21.2626 98.0881 21.616 97.4484 22.2916ZM96.6923 28.4304C95.8211 27.5492 95.3848 26.4037 95.3848 25.0526C95.3848 23.7015 95.8211 22.5559 96.6923 21.6748C97.5649 20.7633 98.6394 20.3226 99.9774 20.3226C101.313 20.3226 102.417 20.7633 103.29 21.6748C104.161 22.5559 104.597 23.7015 104.597 25.0526C104.597 26.4037 104.161 27.5492 103.29 28.4304C102.417 29.3409 101.313 29.7815 99.9774 29.7815C98.6394 29.7815 97.5649 29.3409 96.6923 28.4304ZM86.987 21.292V20.4118H94.6004V21.292H91.3161V29.6934H90.2713V21.292H86.987ZM85.0696 23.2315V22.085C84.4589 21.5279 83.6738 21.2626 82.715 21.2626C81.6109 21.2626 80.7679 21.616 80.1282 22.2916C79.4886 22.9956 79.1703 23.9071 79.1703 25.0526C79.1703 26.1981 79.4886 27.1087 80.1282 27.8136C80.7961 28.5185 81.6398 28.8416 82.715 28.8416C83.8771 28.8416 84.7787 28.4891 85.4465 27.7842C85.5341 27.7842 85.6498 27.8724 85.8242 28.0486C85.9697 28.2248 86.0572 28.3423 86.0572 28.4304C85.2143 29.3409 84.0812 29.7815 82.6861 29.7815C81.3489 29.7815 80.2158 29.3409 79.3439 28.4304C78.4728 27.5492 78.0364 26.4331 78.0364 25.0526C78.0364 23.6721 78.4728 22.5559 79.3439 21.6748C80.2158 20.7633 81.3207 20.3226 82.6564 20.3226C83.9936 20.3226 85.0696 20.7633 85.9407 21.616V23.2315C85.9407 23.2893 85.8829 23.3784 85.7663 23.4958C85.6498 23.6134 85.563 23.6721 85.5044 23.6721C85.4176 23.6721 85.33 23.6134 85.2432 23.4958C85.1267 23.3784 85.0696 23.2893 85.0696 23.2315Z" stroke="#30559D" stroke-width="0.916" stroke-miterlimit="10" stroke-linecap="round" stroke-linejoin="round"/>
</g>
<defs>
<clipPath id="clip0_429_154">
<rect width="265" height="70" fill="white"/>
</clipPath>
</defs>
</svg>
