<svg width="32" height="32" viewBox="0 0 32 32" fill="none" xmlns="http://www.w3.org/2000/svg">
<g clip-path="url(#clip0_429_324)">
<mask id="mask0_429_324" style="mask-type:luminance" maskUnits="userSpaceOnUse" x="-2" y="-2" width="36" height="36">
<path d="M10.8976 -1.85718H21.1019C28.1461 -1.85718 33.8569 3.85354 33.8569 10.8978V21.1021C33.8569 28.1464 28.1461 33.8571 21.1019 33.8571H10.8976C3.85329 33.8571 -1.85742 28.1464 -1.85742 21.1021V10.8978C-1.85742 3.85354 3.85329 -1.85718 10.8976 -1.85718Z" fill="white"/>
</mask>
<g mask="url(#mask0_429_324)">
<path d="M2.23571 16C2.23571 8.4 8.4 2.23571 16 2.23571C23.6 2.23571 29.7643 8.4 29.7643 16C29.7643 23.6 23.6 29.7643 16 29.7643C15.3857 29.7643 14.8857 30.2643 14.8857 30.8786C14.8857 31.5 15.3857 32 16 32C24.8357 32 32 24.8357 32 16C32 7.16429 24.8357 0 16 0C7.16429 0 0 7.16429 0 16C0 16.6143 0.5 17.1143 1.12143 17.1143C1.73571 17.1143 2.23571 16.6143 2.23571 16Z" fill="white"/>
<path d="M5.58521 16.3713C4.96378 16.3713 4.46378 16.8713 4.46378 17.4856C4.46378 18.1071 4.96378 18.6071 5.58521 18.6071H11.8138L1.82093 28.6071C1.38521 29.0428 1.38521 29.7499 1.82093 30.1856C2.25664 30.6213 2.95664 30.6213 3.3995 30.1856L13.3924 20.1856V26.4142C13.3924 27.0356 13.8924 27.5356 14.5138 27.5356C15.1281 27.5356 15.6281 27.0356 15.6281 26.4142V17.4856C15.6281 16.8713 15.1281 16.3713 14.5138 16.3713H5.58521Z" fill="white"/>
</g>
</g>
<defs>
<clipPath id="clip0_429_324">
<rect width="32" height="32" fill="white"/>
</clipPath>
</defs>
</svg>
